<svg width="20" height="20" viewBox="0 0 20 20" fill="none" xmlns="http://www.w3.org/2000/svg">
<path fill-rule="evenodd" clip-rule="evenodd" d="M5.74457 3.61059C6.00002 2.5911 6.91641 1.875 7.96833 1.875H12.0317C13.0836 1.875 14 2.5911 14.2554 3.61059L14.3583 4.02198L14.6034 4.04885C16.6088 4.27244 18.125 5.96641 18.125 7.98333V14.1667C18.125 16.3527 16.3527 18.125 14.1667 18.125H5.83333C3.64732 18.125 1.875 16.3527 1.875 14.1667V7.98333C1.875 5.96641 3.39121 4.27244 5.39658 4.04885L5.64173 4.02198L5.74457 3.61059ZM10 7.37498C8.00069 7.37498 6.37502 9.00065 6.37502 11C6.37502 12.9993 8.00069 14.625 10 14.625C11.9994 14.625 13.625 12.9993 13.625 11C13.625 9.00065 11.9994 7.37498 10 7.37498ZM7.62502 11C7.62502 9.691 8.69104 8.62498 10 8.62498C11.309 8.62498 12.375 9.691 12.375 11C12.375 12.309 11.309 13.375 10 13.375C8.69104 13.375 7.62502 12.309 7.62502 11Z" fill="url(#paint0_linear_1695_12)"/>
<defs>
<linearGradient id="paint0_linear_1695_12" x1="2" y1="2" x2="18" y2="18" gradientUnits="userSpaceOnUse">
<stop stop-color="#FFD100"/>
<stop offset="1" stop-color="#FF7300"/>
</linearGradient>
</defs>
</svg>
