<svg width="58" height="16" viewBox="0 0 58 16" fill="none" xmlns="http://www.w3.org/2000/svg">
<path d="M0 8C0 3.58172 3.58172 0 8 0H50C54.4183 0 58 3.58172 58 8V8C58 12.4183 54.4183 16 50 16H0V8Z" fill="#FF1A25"/>
<path d="M11.228 2.268L11.636 2.976C10.94 3.288 10.208 3.54 9.464 3.744V6.756H12.68V2.316H13.556V6.756H16.328V7.596H13.556V13.188H12.68V7.596H9.452C9.308 10.14 8.324 12 6.476 13.2L5.828 12.636C7.532 11.556 8.444 9.876 8.564 7.596H5.66V6.756H8.576V3.96C7.808 4.128 7.004 4.236 6.188 4.308L5.912 3.528C8.024 3.324 9.8 2.904 11.228 2.268ZM17.552 2.7H22.316V3.492H21.668V10.068L22.46 9.816V10.656C22.196 10.74 21.932 10.824 21.668 10.896V13.212H20.84V11.112C19.832 11.376 18.776 11.616 17.672 11.82L17.456 11.004C17.744 10.956 18.02 10.92 18.296 10.872V3.492H17.552V2.7ZM19.124 10.716C19.7 10.596 20.276 10.452 20.84 10.308V8.568H19.124V10.716ZM19.124 7.776H20.84V6.048H19.124V7.776ZM19.124 5.256H20.84V3.492H19.124V5.256ZM22.88 2.868H27.944V8.532H22.88V2.868ZM27.104 7.716V3.696H23.72V7.716H27.104ZM24.008 9.24L24.752 9.612C24.212 11.004 23.576 12.216 22.844 13.224L22.124 12.708C22.856 11.748 23.48 10.584 24.008 9.24ZM26.696 9.216C27.536 10.56 28.184 11.724 28.64 12.72L27.92 13.224C27.464 12.144 26.828 10.944 26.024 9.636L26.696 9.216ZM39.932 3.984V13.02H39.092V12.216H36.836V13.02H36.008V3.984H39.932ZM36.836 11.388H39.092V4.812H36.836V11.388ZM31.592 2.232H32.456V4.656H34.904C34.904 8.4 34.844 10.716 34.724 11.604C34.604 12.588 34.016 13.092 32.96 13.092C32.78 13.092 32.48 13.068 32.048 13.044L31.832 12.252C32.216 12.276 32.552 12.3 32.84 12.3C33.452 12.3 33.812 11.952 33.908 11.268C33.98 10.644 34.028 8.712 34.052 5.496H32.456C32.408 9.036 31.616 11.616 30.08 13.248L29.444 12.684C30.836 11.184 31.556 8.784 31.592 5.496H29.672V4.656H31.592V2.232ZM42.104 5.34H44.24C44.132 5.076 44.024 4.848 43.904 4.632L44.696 4.488C44.816 4.74 44.936 5.028 45.056 5.34H47.024V6.06H46.388C46.256 6.528 46.076 6.972 45.86 7.404H47.3V8.148H44.984V9.072H46.904V9.78H44.984V12.048C44.984 12.744 44.672 13.104 44.048 13.104H43.196L43.028 12.36C43.292 12.396 43.544 12.42 43.784 12.42C44.072 12.42 44.216 12.228 44.216 11.856V9.78H42.08V9.072H44.216V8.148H41.744V7.404H43.424L42.98 6.06H42.104V5.34ZM45.068 7.404C45.308 6.972 45.488 6.516 45.608 6.06H43.736L44.204 7.404H45.068ZM41.852 2.964H44.528V2.172H45.416V2.964H48.524V2.196H49.412V2.964H52.148V3.732H49.412V4.524H48.524V3.732H45.416V4.428H44.528V3.732H41.852V2.964ZM51.572 4.788L51.98 5.532C50.972 5.844 49.844 6.024 48.608 6.096V7.368H52.424V8.16H50.948V13.212H50.132V8.16H48.608V9.168C48.548 10.86 48.032 12.216 47.072 13.224L46.52 12.636C47.312 11.796 47.732 10.644 47.804 9.168V5.388C49.196 5.364 50.456 5.16 51.572 4.788ZM42.8 10.14L43.508 10.284C43.208 11.184 42.788 11.964 42.236 12.624L41.624 12.24C42.164 11.604 42.56 10.908 42.8 10.14ZM46.148 10.14C46.46 10.764 46.712 11.352 46.88 11.88L46.208 12.132C46.004 11.508 45.764 10.908 45.476 10.32L46.148 10.14Z" fill="white"/>
</svg>
